:version 1.10
:name ASF
:units
  mass 1
  length 1
  angle deg
:documentation
  ASF file generated by Kaydara
:root
  axis xyz
  order  tx ty tz rx ry rz
  position 0 0 0
  orientation 0 0 0
:bonedata
  begin
    id 1
    name RightUpLegDummy
    direction -1 2.30186e-007 8.31532e-007
    length 4.46685
    axis 0 0 0 xyz
  end
  begin
    id 2
    name RightUpLeg
    direction -2.30187e-007 -1 1.24343e-010
    length 16.4045
    axis -3.49089 -0.000906625 0.000286804 xyz
    dof rx ry rz
  end
  begin
    id 3
    name RightLeg
    direction -2.30181e-007 -1 -4.17157e-009
    length 17.5097
    axis 3.68512 0.0193738 -0.131023 xyz
    dof rx ry rz
  end
  begin
    id 4
    name RightFoot
    direction 8.31421e-007 -4.51202e-011 1
    length 6.49508
    axis 4.81691e-005 -0.120479 -0.188788 xyz
    dof rx ry rz
  end
  begin
    id 5
    name RightToes
    direction 0.00124746 -0.014064 0.9999
    length 3.85082
    axis 0.000481921 0.542163 -0.142578 xyz
    dof rx ry rz
  end
  begin
    id 6
    name SpineDummy
    direction 0.0717043 0.9409 -0.331007
    length 10.0032
    axis 0 0 0 xyz
  end
  begin
    id 7
    name Spine
    direction 2.30186e-007 1 4.58806e-011
    length 9.84055
    axis -0.001389 0.000121418 2.40972e-006 xyz
    dof rx ry rz
  end
  begin
    id 8
    name Spine1
    direction 0 0 0
    length 0
    axis -0.001389 0.000121451 1.30017e-006 xyz
    dof rx ry rz
  end
  begin
    id 9
    name HEadDummy
    direction -0.00347485 0.950688 -0.310128
    length 8.00997
    axis -0.001389 0.000121451 1.30017e-006 xyz
  end
  begin
    id 10
    name HEad
    direction -0.0222688 0.980941 0.193023
    length 5.12695
    axis -0.001389 0.000121451 1.30017e-006 xyz
    dof rx ry rz
  end
  begin
    id 11
    name LeftShoulder1Dummy
    direction 0.988871 0.146793 -0.0242004
    length 3.5792
    axis -0.001389 0.000121451 1.30017e-006 xyz
  end
  begin
    id 12
    name LeftShoulder1
    direction 0.993832 0.108932 0.020779
    length 4.16823
    axis -0.001389 0.000121451 1.30017e-006 xyz
    dof rx ry rz
  end
  begin
    id 13
    name LeftArm
    direction 1 3.44807e-006 -8.31404e-007
    length 9.91437
    axis -23.1894 0.134784 0.967509 xyz
    dof rx ry rz
  end
  begin
    id 14
    name LeftForeArm
    direction 1 3.44842e-006 -8.31581e-007
    length 9.08575
    axis -9.91835 -0.06569 -0.177793 xyz
    dof rx ry rz
  end
  begin
    id 15
    name LeftHand
    direction 0.992938 -0.0411636 0.11126
    length 5.32135
    axis -0.00960232 -0.00340091 0.185173 xyz
    dof rx ry rz
  end
  begin
    id 16
    name RightShoulderDummy
    direction -0.988871 0.146793 -0.0241962
    length 3.5792
    axis -0.001389 0.000121451 1.30017e-006 xyz
  end
  begin
    id 17
    name RightShoulder
    direction -0.993832 0.108933 0.0207785
    length 4.16823
    axis 0.215806 0.000203643 -0.0068026 xyz
    dof rx ry rz
  end
  begin
    id 18
    name RightArm
    direction -1 3.90912e-006 8.31284e-007
    length 9.91437
    axis -23.2009 -0.134239 -0.964101 xyz
    dof rx ry rz
  end
  begin
    id 19
    name RightForeArm
    direction -1 3.90882e-006 8.31502e-007
    length 9.08575
    axis -9.92322 0.0658061 0.178867 xyz
    dof rx ry rz
  end
  begin
    id 20
    name RightHand
    direction -0.992843 -0.0414603 0.112003
    length 5.28593
    axis -0.00960638 0.00330671 -0.185228 xyz
    dof rx ry rz
  end
  begin
    id 21
    name LeftUpLegDummy
    direction 1 -2.30186e-007 -8.31532e-007
    length 4.46685
    axis 0 0 0 xyz
  end
  begin
    id 22
    name LeftUpLeg
    direction -2.30187e-007 -1 6.00931e-010
    length 16.4045
    axis -3.48766 0.00143442 -0.000524262 xyz
    dof rx ry rz
  end
  begin
    id 23
    name LeftLeg
    direction -2.30187e-007 -1 1.6669e-009
    length 17.5097
    axis 3.68178 -0.00654042 -0.000285133 xyz
    dof rx ry rz
  end
  begin
    id 24
    name LeftFoot
    direction 8.31532e-007 -4.54478e-011 1
    length 6.49508
    axis 1.87233e-006 4.66016e-005 -8.6538e-006 xyz
    dof rx ry rz
  end
  begin
    id 25
    name LeftToes
    direction 0.00818058 -0.00485161 0.999955
    length 3.85048
    axis 1.06247e-005 4.65869e-005 -8.65513e-006 xyz
    dof rx ry rz
  end
:hierarchy
  begin
    root RightUpLegDummy SpineDummy LeftUpLegDummy
    RightUpLegDummy RightUpLeg
    RightUpLeg RightLeg
    RightLeg RightFoot
    RightFoot RightToes
    SpineDummy Spine
    Spine Spine1
    Spine1 HEadDummy LeftShoulder1Dummy RightShoulderDummy
    HEadDummy HEad
    LeftShoulder1Dummy LeftShoulder1
    LeftShoulder1 LeftArm
    LeftArm LeftForeArm
    LeftForeArm LeftHand
    RightShoulderDummy RightShoulder
    RightShoulder RightArm
    RightArm RightForeArm
    RightForeArm RightHand
    LeftUpLegDummy LeftUpLeg
    LeftUpLeg LeftLeg
    LeftLeg LeftFoot
    LeftFoot LeftToes
  end

:SAMPLES-PER-SECOND 30
:FULLY-SPECIFIED
:DEGREES
63
root  1.51774 33.9247 -0.39769 -177.08 -5.21588 179.662
RightUpLeg  3.4946 -4.30141 -0.621612
RightLeg  2.16358 -4.74 0.126848
RightFoot  3.51483 0.0256668 -0.340141
RightToes  -25.6157 -0.11163 -0.221201
Spine  1.83494 -1.71134 -0.442269
Spine1  3.72053 -3.39386 -1.16453
HEad  15.3656 2.31246 6.81964
LeftShoulder1  0 -2.42657e-020 -4.95415e-022
LeftArm  -68.6995 11.8879 -21.902
LeftForeArm  59.5422 -24.6304 -4.58473
LeftHand  0.492284 -7.83421 -7.5567
RightShoulder  0 2.42657e-020 1.07489e-018
RightArm  -80.773 -9.88748 16.1975
RightForeArm  64.1496 5.9956 1.01132
RightHand  -1.09 21.9863 -5.23832
LeftUpLeg  2.32222 3.82447 2.17545
LeftLeg  3.61781 -3.07056 0.0030108
LeftFoot  3.14295 0.014836 -0.208058
LeftToes  -15.0412 1.18758e-006 1.19596e-007
64
root  1.5434 33.926 -0.379133 -177.104 -5.13712 179.674
RightUpLeg  3.51849 -4.19368 -0.560735
RightLeg  2.07397 -4.78634 0.135544
RightFoot  3.56728 0.0262652 -0.349435
RightToes  -25.6261 -0.110722 -0.220682
Spine  1.83182 -1.75054 -0.40702
Spine1  3.71417 -3.47543 -1.0979
HEad  16.6202 4.18671 6.47326
LeftShoulder1  0 -2.42657e-020 -4.95415e-022
LeftArm  -67.9976 12.7477 -23.9279
LeftForeArm  58.1858 -24.6184 -4.58522
LeftHand  0.531294 -8.17813 -7.798
RightShoulder  0 2.42657e-020 1.07489e-018
RightArm  -80.8942 -9.71932 18.1268
RightForeArm  63.2828 6.48485 1.10015
RightHand  -1.20677 22.143 -5.7931
LeftUpLeg  2.49445 3.88626 2.22853
LeftLeg  3.29102 -3.07191 0.0205624
LeftFoot  3.29139 0.015473 -0.217959
LeftToes  -15.1169 1.18758e-006 1.19596e-007
65
root  1.57103 33.9269 -0.36099 -177.138 -5.03493 179.689
RightUpLeg  3.55775 -4.08063 -0.498403
RightLeg  1.97129 -4.79909 0.144475
RightFoot  3.60812 0.0265765 -0.354269
RightToes  -25.489 -0.109768 -0.220173
Spine  1.83449 -1.75284 -0.349407
Spine1  3.71767 -3.48293 -0.98205
HEad  17.9348 6.24766 6.18082
LeftShoulder1  0 -2.42657e-020 -4.95415e-022
LeftArm  -68.3341 13.4345 -26.5855
LeftForeArm  58.3896 -24.5861 -4.57786
LeftHand  0.528656 -8.07295 -7.85766
RightShoulder  0 2.42657e-020 1.07489e-018
RightArm  -79.9579 -9.91864 20.4113
RightForeArm  61.912 7.46309 1.27741
RightHand  -1.15568 22.645 -5.3986
LeftUpLeg  2.64919 3.99797 2.29381
LeftLeg  3.0246 -3.10966 0.0353036
LeftFoot  3.4189 0.016088 -0.227516
LeftToes  -15.1288 1.18758e-006 1.19596e-007
66
root  1.59625 33.9266 -0.344967 -177.228 -4.93222 179.724
RightUpLeg  3.58453 -4.04273 -0.433617
RightLeg  1.99928 -4.74282 0.140477
RightFoot  3.61153 0.0263496 -0.350746
RightToes  -25.4535 -0.108785 -0.219675
Spine  1.85261 -1.76843 -0.29372
Spine1  3.75145 -3.51685 -0.867449
HEad  19.05 8.5292 5.77542
LeftShoulder1  0 -2.42657e-020 -4.95415e-022
LeftArm  -68.6251 14.1363 -29.424
LeftForeArm  58.6337 -24.187 -4.49229
LeftHand  0.524403 -8.23418 -7.65193
RightShoulder  0 2.42657e-020 1.07489e-018
RightArm  -79.4571 -10.1769 23.184
RightForeArm  61.6167 8.46043 1.45646
RightHand  -1.13157 22.8348 -5.23029
LeftUpLeg  2.76173 4.10326 2.37742
LeftLeg  2.95535 -3.12804 0.0393016
LeftFoot  3.46279 0.0161613 -0.228655
LeftToes  -15.2197 1.18758e-006 1.19596e-007
67
root  1.62075 33.9236 -0.326732 -177.376 -4.89474 179.731
RightUpLeg  3.57536 -4.26406 -0.429652
RightLeg  2.22347 -4.49972 0.115755
RightFoot  3.51608 0.0249083 -0.328361
RightToes  -25.4577 -0.107791 -0.21919
Spine  1.92078 -1.80503 -0.258305
Spine1  3.88653 -3.59064 -0.799904
HEad  19.8681 10.7349 5.3504
LeftShoulder1  0 -2.42657e-020 -4.95415e-022
LeftArm  -69.0941 14.73 -32.437
LeftForeArm  59.3085 -23.4401 -4.3331
LeftHand  0.515901 -8.15498 -7.60389
RightShoulder  0 2.42657e-020 1.07489e-018
RightArm  -78.8834 -10.4342 26.3041
RightForeArm  61.2999 8.91682 1.53913
RightHand  -1.17799 22.8902 -5.44522
LeftUpLeg  2.82685 4.15748 2.43538
LeftLeg  3.05973 -3.15779 0.0339154
LeftFoot  3.44705 0.0159979 -0.226115
LeftToes  -15.3249 1.18758e-006 1.19596e-007
